# xmcd
#
# Track frame offsets: 
#        150
#        13053
#        25937
#        39076
#        51690
#        65532
#        76317
#        89802
#        102282
#        112677
#        123928
#        136036
#        148292
#        158320
#        170737
#        184081
#        196435
#        209045
#        219806
#        231686
#        244233
#        255002
#        267355
#        279926
#        290971
#        304843
#        316632
#
# Disc length: 4364 seconds
#
# Revision: 4
# Processed by: cddbd v1.5.2PL0 Copyright (c) Steve Scherf et al.
# Submitted via: ExactAudioCopyFreeDBPlugin 1.0
#
DISCID=89110a1b
DTITLE=Various Artist - The Big Horn:  The History of the Honkin' and
DTITLE=Screamin' Saxophone [Proper Records]
DYEAR=2003
DGENRE=Rhythm and Blues
TTITLE0=Big Jay McNeely - Deacon's Hop
TTITLE1=Big Jay McNeely - Blow Big Jay
TTITLE2=Big Jay McNeely - Road House Boogie
TTITLE3=Big Jay McNeely - Tondalayo
TTITLE4=Big Jay McNeely - Jay's Frantic
TTITLE5=Big Jay McNeely - The Goof
TTITLE6=Frank "Floorshow" Culley - Floorshow
TTITLE7=Frank "Floorshow" Culley - Cole Slaw
TTITLE8=Frank "Floorshow" Culley - Central Avenue Breakdown
TTITLE9=Frank "Floorshow" Culley - Culley Flower
TTITLE10=Eddie "Lockjaw" Davis - Mountain Oysters
TTITLE11=Freddie Mitchell and His Orchestra - Slider
TTITLE12=Freddie Mitchell and His Orchestra - I Got Your Boogie
TTITLE13=Freddie Mitchell and His Orchestra - Moon Dog Boogie
TTITLE14=Lee Allen - Backtrackin' (Dr. Daddy-O)
TTITLE15=Lee Allen and Leroy "Batman" Rankin - Miss Lollipop's Confess
TTITLE15=ion
TTITLE16=Lee Allen and Leroy "Batman" Rankin - Boogie's the Thing
TTITLE17=Herb Hardesty - Jumpin' Tonight
TTITLE18=Birdie Davis and Margaret Backstrom - Racehorse
TTITLE19=Sam "The Man" Taylor - Cracklin' Bread
TTITLE20=Sam "The Man" Taylor - Big Fat Mamas Are Back in Style Again
TTITLE21=Sam "The Man" Taylor - Cherokee Boogie
TTITLE22=Cecil Payne - Egg Head
TTITLE23=Ray Abrams - Everybody Get Together
TTITLE24=James Von Streeter - Head Hunter
TTITLE25=Earl Johnson - Sausage Rock
TTITLE26=Maxwell Davis - Safronia B
EXTD=
EXTT0=
EXTT1=
EXTT2=
EXTT3=
EXTT4=
EXTT5=
EXTT6=
EXTT7=
EXTT8=
EXTT9=
EXTT10=
EXTT11=
EXTT12=
EXTT13=
EXTT14=
EXTT15=
EXTT16=
EXTT17=
EXTT18=
EXTT19=
EXTT20=
EXTT21=
EXTT22=
EXTT23=
EXTT24=
EXTT25=
EXTT26=
PLAYORDER=
